Coordinates
version=1
nRows=7
nColumns=40
inDegrees=yes

Units are S.I. units (second, meters, Newtons, ...)
If the header above contains a line with 'inDegrees', this indicates whether rotational values are in degrees (yes) or radians (no).

endheader
time	pelvis_tilt	pelvis_list	pelvis_rotation	pelvis_tx	pelvis_ty	pelvis_tz	hip_flexion_r	hip_adduction_r	hip_rotation_r	knee_angle_r	knee_angle_r_beta	ankle_angle_r	subtalar_angle_r	mtp_angle_r	hip_flexion_l	hip_adduction_l	hip_rotation_l	knee_angle_l	knee_angle_l_beta	ankle_angle_l	subtalar_angle_l	mtp_angle_l	lumbar_extension	lumbar_bending	lumbar_rotation	arm_flex_r	arm_add_r	arm_rot_r	elbow_flex_r	pro_sup_r	wrist_flex_r	wrist_dev_r	arm_flex_l	arm_add_l	arm_rot_l	elbow_flex_l	pro_sup_l	wrist_flex_l	wrist_dev_l
      4.31500000	    -15.04215943	      5.39522277	      2.23015530	     -0.46138360	      0.79193848	     -0.72535707	     63.73124934	     -3.87890272	     -5.30887545	     75.86119709	      1.32402766	     15.52548028	      0.00000000	      0.00000000	     72.22057965	     -2.00977628	    -10.36829987	     17.15197004	      0.29935835	    -27.74837551	      0.00000000	      0.00000000	    -11.90658460	     -2.29447077	     -3.71432480	     89.96840046	     -2.31187626	     11.12724352	     53.73030652	     74.23654742	      0.00000000	      0.00000000	     89.95710126	     -7.05738087	      6.86803281	     49.16016973	     79.08416874	      0.00000000	      0.00000000
      4.32000000	    -15.02605708	      5.41410278	      2.25192553	     -0.46118305	      0.79308439	     -0.72536192	     63.57420503	     -3.91239500	     -5.32060571	     75.63714333	      1.32011719	     15.42802570	      0.00000000	      0.00000000	     72.16131792	     -1.97706910	    -10.35379826	     17.16682685	      0.29961765	    -27.71464971	      0.00000000	      0.00000000	    -11.87597434	     -2.32067160	     -3.73785187	     89.96837834	     -2.32887314	     11.15568168	     53.70098270	     74.27544666	      0.00000000	      0.00000000	     89.95702401	     -7.09541318	      6.88642069	     49.11370635	     79.09080571	      0.00000000	      0.00000000
      4.32500000	    -15.01930365	      5.42437704	      2.26178920	     -0.46101936	      0.79421625	     -0.72549140	     63.42401927	     -3.93386186	     -5.31116584	     75.40231879	      1.31601873	     15.33268348	      0.00000000	      0.00000000	     72.11437756	     -1.95475972	    -10.33098148	     17.18424302	      0.29992162	    -27.67976896	      0.00000000	      0.00000000	    -11.84288249	     -2.32961749	     -3.74056634	     89.96836151	     -2.34316912	     11.17168561	     53.72025579	     74.31300204	      0.00000000	      0.00000000	     89.95694362	     -7.09687173	      6.92446973	     49.08330614	     79.09928263	      0.00000000	      0.00000000
      4.33000000	    -14.99755036	      5.43940699	      2.27066553	     -0.46095164	      0.79542871	     -0.72540593	     63.27640086	     -4.02440122	     -5.44182999	     75.18647914	      1.31225161	     15.20767107	      0.00000000	      0.00000000	     72.05297376	     -1.94226236	    -10.32036988	     17.20003018	      0.30019716	    -27.67068777	      0.00000000	      0.00000000	    -11.82146216	     -2.36677347	     -3.73812361	     89.96828230	     -2.36404943	     11.19136687	     53.66145657	     74.34846859	      0.00000000	      0.00000000	     89.95696586	     -7.11012169	      6.94964659	     49.06107139	     79.10718618	      0.00000000	      0.00000000
      4.33500000	    -15.01204001	      5.44189040	      2.27977632	     -0.46069284	      0.79639617	     -0.72550865	     63.22170552	     -4.04105750	     -5.43717506	     75.15365473	      1.31167872	     15.18956027	      0.00000000	      0.00000000	     72.03752901	     -1.92792668	    -10.32318491	     17.20464048	      0.30027762	    -27.66597408	      0.00000000	      0.00000000	    -11.75974157	     -2.36253795	     -3.74198635	     89.96830327	     -2.37941931	     11.17256397	     53.68721120	     74.34940798	      0.00000000	      0.00000000	     89.95671095	     -7.11960191	      6.94212821	     49.08539082	     79.10757009	      0.00000000	      0.00000000
      4.34000000	    -15.00852429	      5.48537524	      2.34881248	     -0.46059378	      0.79773570	     -0.72560283	     62.99466686	     -4.11465427	     -5.41768555	     74.72224178	      1.30414914	     15.01854640	      0.00000000	      0.00000000	     71.98902626	     -1.83485994	    -10.32616927	     17.24397879	      0.30096421	    -27.63121857	      0.00000000	      0.00000000	    -11.73154206	     -2.40249332	     -3.81754351	     89.96821863	     -2.35290295	     11.21473677	     53.66573078	     74.38610832	      0.00000000	      0.00000000	     89.95676354	     -7.14379343	      6.99110933	     49.00459685	     79.11558367	      0.00000000	      0.00000000
      4.34500000	    -14.99329863	      5.47789664	      2.37980858	     -0.46042156	      0.79889956	     -0.72560761	     62.82916108	     -4.12220881	     -5.43421077	     74.47655138	      1.29986104	     14.88428192	      0.00000000	      0.00000000	     71.93807274	     -1.80802012	    -10.34068255	     17.26787537	      0.30138128	    -27.61244088	      0.00000000	      0.00000000	    -11.70617720	     -2.41483119	     -3.83102709	     89.96823998	     -2.42411152	     11.19046281	     53.60761027	     74.40272156	      0.00000000	      0.00000000	     89.95675869	     -7.15147811	      7.04333566	     48.99102066	     79.12624160	      0.00000000	      0.00000000
